<?xml version="1.0" encoding="utf-8"?>
<svg xmlns="http://www.w3.org/2000/svg" viewBox="0 0 500 500">
  <g transform="matrix(1, 0, 0, 1, -611, -116.9)">
    <path class="st0" d="M821,116.9c-116,0-210,94-210,210s94,210,210,210s210-94,210-210S937,116.9,821,116.9z M942,459.5 c-32.7,29-72,43.7-116.6,43.7l0,0c-45.2,0-85.1-15.9-100.9-26.5c-31.8-21.5-49.3-36-62.9-60.4c-20.7-37-46.7-111.6,11.4-196 c45.7-66.3,110.3-76.2,144.7-76.2c11.6,0,19.4,1.1,21.1,1.4c76.7,6.4,111.5,45.2,131,73.9c9.6,14.1,13.1,24.2,17.9,38.2 c2.1,6,4.4,12.8,7.7,21.1C995.7,279.6,1030.3,381.3,942,459.5z" style="fill: rgb(255, 216, 36);"/>
    <g>
      <path class="st1" d="M725,305c26.9-49.3,47.1-76.7,115.4-91.9c39.3-8.7,57-31.9,64.5-42.8c-15.9-7.9-35.6-14.2-59.9-16.9 c-0.7,1.1-1.3,2.2-2.1,3.2c-7.9,11.3-19.6,18.4-31.4,19.1c-23.3,1.4-53.6,5.9-67.2,47.1c-9.9,30-22.3,32.6-76.5,52 c-6.6,2.3-12.1,5.1-16.9,8.1c-8.4,30.1-7.2,57.2-2.4,79.1C675.1,356.1,705.8,340.3,725,305z" style="fill: rgb(253, 123, 197);"/>
      <path class="st1" d="M734.4,211.3c18-38.6,52.3-45,76.6-46.4c7.9-0.5,15.9-5.3,21.9-12.9C812,149.9,732,147.3,679,224.3 c-10.3,15-17.8,29.6-23.1,43.6c2.6-1.2,5.4-2.3,8.3-3.4C716.1,246,722.4,237,734.4,211.3z" style="fill: rgb(253, 123, 197);"/>
      <path class="st1" d="M737.1,386.3c12.6-7.1,23.3-11.7,33.5-15.5c-10.2-11-16.4-25.7-16.4-41.9c0-34.2,27.7-61.8,61.8-61.8 c30.8,0,56.3,22.6,61,52.1c15.6-15.6,23.4-35.1,29.9-46.3c2.6-4.5,4.7-8,6.5-10.4c11.7-15.5,27-30.5,53.7-33.7 c-1.1-1.7-2.2-3.5-3.5-5.4c-9-13.3-23.6-32.7-49.3-47.9c-8.4,12.8-25.9,30.1-61.7,44.7c-62.7,25.6-84.3,43.4-110,90.6 c-20,36.7-60.8,54.9-91.4,61.8c5.2,18.3,12.3,32.2,16.7,40c5.3,9.5,11.3,17.5,18.7,25C693.1,425.1,707.8,402.7,737.1,386.3z" style="fill: rgb(253, 123, 197);"/>
      <path class="st1" d="M851.4,404.4c7.2-2.2,14.7-4.4,22.4-7c34.4-11.6,41.5-26.2,49.7-43c4.4-8.9,8.9-18.2,17.5-27.5 c18.1-19.6,41.5-20.5,52.8-21.2c-1.6-12.7-4.2-21.5-5.3-24.4c-7.5-19.1-10.2-30.4-15.7-42.1c-25.1,1.2-36.5,16.2-48.4,32.1 c-1.4,1.9-3.4,5.3-5.8,9.3c-7.8,13.2-20.4,34.7-40.9,52.8c-2.4,32-29,57.2-61.6,57.2c-13.5,0-26-4.4-36.2-11.8 c-11.4,3.9-23.2,8.7-37.4,16.7c-29.4,16.5-42.8,39.6-47.6,49.7c9,7.9,19.9,15.8,33.7,25.1c6.4,4.4,18.5,10.3,34.2,15.3 C780.8,429.7,811,416.5,851.4,404.4z" style="fill: rgb(253, 123, 197);"/>
      <path class="st1" d="M886.4,455.4c-15.9,11.9-24.8,26.4-29.7,37.6c26.9-4.8,54.7-16.4,80.4-39.1c19.1-16.9,32.2-35,41-52.9 c-17.1,15.4-37.2,25.1-55.7,34.1C909.1,441.7,896.5,447.8,886.4,455.4z" style="fill: rgb(253, 123, 197);"/>
      <path class="st1" d="M994.8,316.4c-9.3,0.6-27.6,4-43.5,21.2c-7.5,8.1-11.5,16.3-15.7,24.9c-8.5,17.5-17.3,35.5-56,48.5 c-7.9,2.7-15.4,4.9-22.7,7.1c-38.5,11.5-67.4,20.2-83.7,70.7c20.2,5.3,44.9,8.6,71.1,5.9c4.7-13.1,9.4-31.9,30.1-47.5 c10.9-8.2,29.4-15,43.3-21.8c26.5-12.8,53.7-26.1,71.7-54.1C994.9,350.9,995.8,331.8,994.8,316.4z" style="fill: rgb(253, 123, 197);"/>
    </g>
  </g>
</svg>