<?xml version="1.0" encoding="utf-8"?>
<svg xmlns="http://www.w3.org/2000/svg" viewBox="0 0 500 500">
  <g transform="matrix(1, 0, 0, 1, -611, -613.1)">
    <path class="st2" d="M821,613.1c-116,0-210,94-210,210s94,210,210,210s210-94,210-210S937,613.1,821,613.1z M988.2,873.2 c5.7,14.7,4.4,30.9-3.4,44.5c-7.9,13.6-21.3,22.8-36.8,25.2c-3.8,0.6-6.6,3.4-7.2,7.2c-2.4,15.5-11.6,29-25.2,36.8 c-7.8,4.5-16.8,6.9-25.8,6.9c-6.4,0-12.7-1.2-18.7-3.5c-1.1-0.4-2.2-0.6-3.4-0.6c-1.4,0-4.1,0.4-6,2.8 c-9.9,12.6-24.7,19.8-40.6,19.8c-15.9,0-30.8-7.2-40.6-19.8c-1.9-2.4-4.6-2.8-6-2.8c-1.1,0-2.3,0.2-3.4,0.6 c-6,2.3-12.3,3.5-18.7,3.5c-9,0-17.9-2.4-25.8-6.9c-13.6-7.9-22.8-21.3-25.2-36.8c-0.6-3.8-3.4-6.6-7.2-7.2 c-15.5-2.4-29-11.6-36.8-25.2c-7.9-13.6-9.1-29.8-3.4-44.5c1.4-3.5,0.5-7.3-2.1-9.4c-12.6-9.9-19.8-24.7-19.8-40.6 c0-15.9,7.2-30.8,19.8-40.6c2.7-2.1,3.5-5.9,2.1-9.4c-5.7-14.7-4.4-30.9,3.4-44.5c7.9-13.6,21.3-22.8,36.8-25.2 c3.8-0.6,6.6-3.4,7.2-7.2c2.4-15.5,11.6-29,25.2-36.8c7.8-4.5,16.8-6.9,25.8-6.9c6.4,0,12.7,1.2,18.7,3.5c1.1,0.4,2.2,0.6,3.4,0.6 c1.4,0,4.1-0.4,6-2.8c9.9-12.6,24.7-19.8,40.6-19.8c15.9,0,30.8,7.2,40.6,19.8c1.9,2.4,4.6,2.8,6,2.8c1.1,0,2.3-0.2,3.4-0.6 c6-2.3,12.3-3.5,18.7-3.5c9,0,17.9,2.4,25.8,6.9c13.6,7.9,22.8,21.3,25.2,36.8c0.6,3.8,3.4,6.6,7.2,7.2c15.5,2.4,29,11.6,36.8,25.2 c7.9,13.6,9.1,29.8,3.4,44.5c-1.4,3.5-0.5,7.3,2.1,9.4c12.6,9.9,19.8,24.7,19.8,40.6c0,15.9-7.2,30.8-19.8,40.6 C987.7,865.8,986.8,869.6,988.2,873.2z" style="fill: rgb(145, 21, 11);"/>
    <path class="st0" d="M986,788.1c-5.3-4.2-6.8-11.3-4.4-17.6c4.7-12.1,4.1-26.2-2.9-38.4c-7-12.1-18.9-19.7-31.7-21.7 c-6.9-1.1-12.1-6.3-13.1-13.1c-2-12.9-9.6-24.7-21.7-31.7c-12.1-7-27.3-2.8-39.5,1.9c-6.3,2.4-13.4,0.9-17.6-4.4 c-8.2-10.4-19.7-21.9-33.9-21.9s-26.9,6.7-35,17c-4.2,5.3-11.3,6.8-17.6,4.4c-12.1-4.7-26.2-4.1-38.4,2.9 c-12.1,7-16.1,23-18.1,35.9c-1.1,6.9-6.3,12.1-13.1,13.1c-12.9,2-28.3,5.4-35.3,17.6c-7,12.1-7.6,26.2-2.9,38.4 c2.4,6.3,0.9,13.4-4.4,17.6c-10.4,8.2-17,20.8-17,35s6.7,26.9,17,35c5.3,4.2,6.8,11.3,4.4,17.6c-4.7,12.1-4.1,26.2,2.9,38.4 c7,12.1,24,16,36.8,18c6.9,1.1,12.1,6.3,13.1,13.1c2,12.9,4.5,28.5,16.6,35.5s27.7,3.7,39.8-1c6.3-2.4,13.4-0.9,17.6,4.4 c8.2,10.4,19.3,21,33.5,21s26.9-6.7,35-17c4.2-5.3,11.3-6.8,17.6-4.4c12.1,4.7,26.2,4.1,38.4-2.9c12.1-7,14.7-22.6,16.7-35.5 c1.1-6.9,6.3-12.1,13.1-13.1c12.9-2,29.8-5.8,36.8-18c7-12.1,7.6-26.2,2.9-38.4c-2.4-6.3-0.9-13.4,4.4-17.6c10.4-8.2,17-20.8,17-35 S996.3,796.3,986,788.1z M865.3,715.3c0.2-1.5,1-3,2.4-3.9l23.7-16.8c2.6-1.9,6.2-1.2,8.1,1.4c1.9,2.6,1.2,6.2-1.4,8.1l-23.7,16.8 c-2.6,1.9-6.2,1.2-8.1-1.4C865.4,718.3,865.1,716.8,865.3,715.3z M849.9,735.6c-0.4,3.2-3.4,5.4-6.6,4.9l-28.7-4.1 c-3.2-0.5-5.4-3.4-4.9-6.6c0.2-1.5,1-2.8,2.1-3.7c1.2-1,2.8-1.4,4.4-1.2l28.7,4.1C848.2,729.5,850.4,732.5,849.9,735.6z M808.2,670.8c1.8-2.7,5.4-3.4,8-1.7l24.2,15.9c2.7,1.8,3.4,5.4,1.7,8c-0.8,1.3-2.1,2.1-3.5,2.5c-1.5,0.4-3.1,0.1-4.5-0.8 l-24.2-15.9C807.1,677.1,806.4,673.5,808.2,670.8z M762.6,729.6l6.9-28.2c0.8-3.1,3.9-5,7-4.3c3.1,0.8,5,3.9,4.3,7l-6.9,28.2 c-0.8,3.1-3.9,5-7,4.3c-1.5-0.4-2.7-1.3-3.5-2.5C762.5,732.9,762.2,731.3,762.6,729.6z M706.9,729.9l24.8-15.1 c2.7-1.7,6.3-0.8,8,1.9c0.8,1.3,1,2.8,0.7,4.2c-0.3,1.5-1.2,2.9-2.7,3.8l-24.8,15.1c-2.7,1.7-6.3,0.8-8-1.9 C703.3,735.1,704.1,731.5,706.9,729.9z M704.5,833.1l18.8-22.1c2.1-2.4,5.7-2.7,8.2-0.7c1.2,1,1.9,2.4,2,3.8 c0.2,1.5-0.3,3.1-1.3,4.4l-18.8,22.1c-2.1,2.4-5.7,2.7-8.2,0.7C702.7,839.2,702.4,835.5,704.5,833.1z M677.5,815.3 c-1.5-0.5-2.6-1.5-3.3-2.7c-0.7-1.4-0.9-3-0.4-4.6l8.9-27.6c1-3.1,4.3-4.7,7.3-3.7s4.7,4.3,3.7,7.3l-8.9,27.6 C683.8,814.7,680.6,816.3,677.5,815.3z M695.2,883.7c-3.1-0.6-5.2-3.7-4.6-6.8c0.3-1.5,1.2-2.8,2.3-3.6c1.3-0.9,2.9-1.3,4.5-1 l28.5,5.6c3.1,0.6,5.2,3.7,4.6,6.8c-0.6,3.1-3.7,5.2-6.8,4.6L695.2,883.7z M750.9,945.4c-2.4,2.1-6.1,2-8.2-0.4l-19.4-21.6 c-2.1-2.4-2-6.1,0.4-8.2c1.1-1,2.6-1.5,4-1.5c1.5,0,3.1,0.7,4.2,1.9l19.4,21.6C753.5,939.6,753.3,943.3,750.9,945.4z M753.1,783.2 c-0.9,1.3-2.1,2.1-3.5,2.4c-1.5,0.3-3.1,0.1-4.5-0.8L721,768.7c-2.7-1.8-3.4-5.4-1.6-8.1c1.8-2.7,5.4-3.4,8.1-1.6l24.1,16.1 C754.2,777,754.9,780.6,753.1,783.2z M777,942.7c-1.5,0.2-3-0.2-4.2-1.1c-1.3-0.9-2.1-2.3-2.4-4l-3.8-28.8c-0.4-3.2,1.8-6.1,5-6.5 s6.1,1.8,6.5,5l3.8,28.8C782.4,939.3,780.2,942.3,777,942.7z M759.2,823.1c0-34.2,27.7-61.8,61.8-61.8c34.2,0,61.8,27.7,61.8,61.8 S855.2,885,821,885C786.9,885,759.2,857.3,759.2,823.1z M836.8,961.5c-1,1.2-2.3,1.9-3.7,2.1c-1.5,0.2-3.1-0.2-4.4-1.3L806.1,944 c-2.5-2-2.9-5.7-0.8-8.2c2-2.5,5.7-2.9,8.2-0.8l22.5,18.3C838.4,955.3,838.8,959,836.8,961.5z M851.6,904.2 c-0.6-1.4-0.6-2.9-0.1-4.3c0.5-1.4,1.6-2.7,3.2-3.3l26.7-11.4c2.9-1.3,6.4,0.1,7.6,3.1c1.3,2.9-0.1,6.4-3.1,7.6l-26.7,11.4 C856.3,908.5,852.9,907.1,851.6,904.2z M903.2,940.4c-0.1,1.5-0.8,2.9-1.9,3.9c-1.1,1-2.7,1.6-4.3,1.5l-28.9-2 c-3.2-0.2-5.6-3-5.4-6.2c0.2-3.2,3-5.6,6.2-5.4l28.9,2C901,934.4,903.4,937.2,903.2,940.4z M901.5,758.7c-2,2.5-5.7,2.9-8.2,0.9 c-1.2-1-1.9-2.3-2.1-3.7c-0.2-1.5,0.2-3.1,1.2-4.4l18.1-22.7c2-2.5,5.7-2.9,8.2-0.9s2.9,5.7,0.9,8.2L901.5,758.7z M918.8,779.7 c1-3.1,4.2-4.8,7.3-3.8l27.7,8.7c3.1,1,4.8,4.2,3.8,7.3c-0.5,1.5-1.5,2.6-2.7,3.3c-1.3,0.8-3,1-4.6,0.5l-27.7-8.7 C919.6,786,917.9,782.8,918.8,779.7z M944.4,907.6c-1.5,0.3-3,0-4.2-0.8c-1.3-0.8-2.3-2.1-2.6-3.8l-5.8-28.4 c-0.6-3.1,1.4-6.2,4.5-6.8s6.2,1.4,6.8,4.5l5.8,28.4C949.6,903.9,947.6,906.9,944.4,907.6z M957.6,844.4c-0.8,1.3-2.1,2.2-3.5,2.5 c-1.5,0.4-3.1,0.2-4.6-0.7L925,830.9c-2.7-1.7-3.6-5.3-1.9-8c1.7-2.7,5.3-3.6,8-1.9l24.6,15.3C958.5,838.1,959.3,841.7,957.6,844.4 z" style="fill: rgb(255, 216, 36);"/>
  </g>
</svg>