<?xml version="1.0" encoding="utf-8"?>
<svg xmlns="http://www.w3.org/2000/svg" viewBox="0 0 500 500">
  <g transform="matrix(1, 0, 0, 1, -119, -116.9)">
    <path class="st2" d="M329,116.9c-116,0-210,94-210,210s94,210,210,210s210-94,210-210S444.9,116.9,329,116.9z M496.1,376.9 c5.7,14.7,4.4,30.9-3.4,44.5c-7.9,13.6-21.3,22.8-36.8,25.2c-3.8,0.6-6.6,3.4-7.2,7.2c-2.4,15.5-11.6,29-25.2,36.8 c-7.8,4.5-16.8,6.9-25.8,6.9c-6.4,0-12.7-1.2-18.7-3.5c-1.1-0.4-2.2-0.6-3.4-0.6c-1.4,0-4.1,0.4-6,2.8 c-9.9,12.6-24.7,19.8-40.6,19.8s-30.8-7.2-40.6-19.8c-1.9-2.4-4.6-2.8-6-2.8c-1.1,0-2.3,0.2-3.4,0.6c-6,2.3-12.3,3.5-18.7,3.5 c-9,0-17.9-2.4-25.8-6.9c-13.6-7.9-22.8-21.3-25.2-36.8c-0.6-3.8-3.4-6.6-7.2-7.2c-15.5-2.4-29-11.6-36.8-25.2 c-7.9-13.6-9.1-29.8-3.4-44.5c1.4-3.5,0.5-7.3-2.1-9.4c-12.6-9.9-19.8-24.7-19.8-40.6s7.2-30.8,19.8-40.6c2.7-2.1,3.5-5.9,2.1-9.4 c-5.7-14.7-4.4-30.9,3.4-44.5c7.9-13.6,21.3-22.8,36.8-25.2c3.8-0.6,6.6-3.4,7.2-7.2c2.4-15.5,11.6-29,25.2-36.8 c7.8-4.5,16.8-6.9,25.8-6.9c6.4,0,12.7,1.2,18.7,3.5c1.1,0.4,2.2,0.6,3.4,0.6c1.4,0,4.1-0.4,6-2.8c9.9-12.6,24.7-19.8,40.6-19.8 s30.8,7.2,40.6,19.8c1.9,2.4,4.6,2.8,6,2.8c1.1,0,2.3-0.2,3.4-0.6c6-2.3,12.3-3.5,18.7-3.5c9,0,17.9,2.4,25.8,6.9 c13.6,7.9,22.8,21.3,25.2,36.8c0.6,3.8,3.4,6.6,7.2,7.2c15.5,2.4,29,11.6,36.8,25.2c7.9,13.6,9.1,29.8,3.4,44.5 c-1.4,3.5-0.5,7.3,2.1,9.4c12.6,9.9,19.8,24.7,19.8,40.6s-7.2,30.8-19.8,40.6C495.6,369.6,494.8,373.4,496.1,376.9z" style="fill: rgb(145, 21, 11);"/>
    <path class="st1" d="M493.9,291.9c-5.3-4.2-6.8-11.3-4.4-17.6c4.7-12.1,4.1-26.2-2.9-38.4c-7-12.1-18.9-19.7-31.7-21.7 c-6.9-1.1-12.1-6.3-13.1-13.1c-2-12.9-9.6-24.7-21.7-31.7s-27.3-2.8-39.5,1.9c-6.3,2.4-13.4,0.9-17.6-4.4 c-8.2-10.4-19.7-21.9-33.9-21.9s-26.9,6.7-35,17c-4.2,5.3-11.3,6.8-17.6,4.4c-12.1-4.7-26.2-4.1-38.4,2.9 c-12.1,7-16.1,23-18.1,35.9c-1.1,6.9-6.3,12.1-13.1,13.1c-12.9,2-28.3,5.4-35.3,17.6c-7,12.1-7.6,26.2-2.9,38.4 c2.4,6.3,0.9,13.4-4.4,17.6c-10.4,8.2-17,20.8-17,35s6.7,26.9,17,35c5.3,4.2,6.8,11.3,4.4,17.6c-4.7,12.1-4.1,26.2,2.9,38.4 c7,12.1,24,16,36.8,18c6.9,1.1,12.1,6.3,13.1,13.1c2,12.9,4.5,28.5,16.6,35.5s27.7,3.7,39.8-1c6.3-2.4,13.4-0.9,17.6,4.4 c8.2,10.4,19.3,21,33.5,21s26.9-6.7,35-17c4.2-5.3,11.3-6.8,17.6-4.4c12.1,4.7,26.2,4.1,38.4-2.9c12.1-7,14.7-22.6,16.7-35.5 c1.1-6.9,6.3-12.1,13.1-13.1c12.9-2,29.8-5.8,36.8-18c7-12.1,7.6-26.2,2.9-38.4c-2.4-6.3-0.9-13.4,4.4-17.6c10.4-8.2,17-20.8,17-35 C510.9,312.7,504.2,300,493.9,291.9z M403.2,205.9c0.2-1.9,1.9-3.4,3.9-3.2c1.9,0.2,3.4,1.9,3.2,3.9l-1.6,17.6 c-0.2,1.8-1.7,3.2-3.5,3.2c-0.1,0-0.2,0-0.3,0c-1.9-0.2-3.4-1.9-3.2-3.9L403.2,205.9z M354.1,223c1.8-0.7,3.9,0.3,4.5,2.1l6,16.7 c0.7,1.8-0.3,3.9-2.1,4.5c-0.4,0.1-0.8,0.2-1.2,0.2c-1.5,0-2.8-0.9-3.3-2.3l-6-16.7C351.3,225.7,352.3,223.7,354.1,223z M325.7,198.6l11.6-13.4c1.3-1.5,3.5-1.6,5-0.4c1.5,1.3,1.6,3.5,0.4,5L331,203.2c-0.7,0.8-1.7,1.2-2.7,1.2c-0.8,0-1.7-0.3-2.3-0.9 C324.6,202.3,324.4,200,325.7,198.6z M236.7,353.7c1.9-0.4,3.8,0.9,4.2,2.8l3.4,17.4c0.4,1.9-0.9,3.8-2.8,4.2 c-0.2,0-0.5,0.1-0.7,0.1c-1.7,0-3.1-1.2-3.5-2.9l-3.4-17.4C233.6,356,234.8,354.1,236.7,353.7z M210.7,353.3 c-3.9,4-10.2,6.1-18.7,6.1c-6.9,0-13-1.4-13.3-1.4l-3-0.7l-0.8-2.9c-0.6-2.3-5.5-22.5,3.8-32c3.2-3.3,6.5-4,8.7-4 c4.3,0,8.2,2.4,10.5,6.5c1.3,2.3,2,4.9,2,7.5c0.1,0,0.1,0,0.2,0c5.9,0,11.2,3.3,13.3,8.1C215.4,344.7,214.3,349.5,210.7,353.3z M216.3,294.1L216.3,294.1l-17.7-0.2c-2,0-3.5-1.6-3.5-3.6c0-1.9,1.6-3.5,3.5-3.5l0,0l17.7,0.2c2,0,3.5,1.6,3.5,3.6 C219.8,292.5,218.2,294.1,216.3,294.1z M242.9,416.9l-17.3,3.8c-0.3,0.1-0.5,0.1-0.8,0.1c-1.6,0-3.1-1.1-3.5-2.8 c-0.4-1.9,0.8-3.8,2.7-4.2l17.3-3.8c1.9-0.4,3.8,0.8,4.2,2.7C246.1,414.6,244.9,416.5,242.9,416.9z M254.1,277.9 c0,1.9-1.6,3.5-3.5,3.5c0,0,0,0-0.1,0c-2,0-3.5-1.6-3.5-3.6l0.3-17.7c0-1.9,1.6-3.5,3.5-3.5c0,0,0,0,0.1,0c2,0,3.5,1.6,3.5,3.6 L254.1,277.9z M259.5,236.8c-5.8-11.9,5.2-29.6,6.4-31.6l1.6-2.6l3,0.3c2.3,0.2,23.1,2.5,28.9,14.4c2,4,1.9,8.3-0.3,11.7 c-2.3,3.6-6.5,5.8-11.3,5.8c-1.8,0-3.5-0.3-5.1-0.9c-0.6,1.7-1.5,3.3-2.6,4.7c-2.7,3.3-6.4,5.2-10.2,5.2 C265.5,243.8,261.7,241.2,259.5,236.8z M317.1,416c-1.4,13.2-20.2,22.3-22.3,23.3l-2.8,1.3l-2.4-1.8c-1.9-1.4-18.2-14.4-16.8-27.5 c0.7-6.5,5.3-10.9,11.6-10.9c4,0,8.4,2,11.4,5.7c2.9-2.3,6.4-3.4,9.5-3.4c3.6,0,6.8,1.4,9,3.8C316.5,408.8,317.5,412.2,317.1,416z M336.7,466.1c-0.7,0.7-1.6,1.1-2.5,1.1s-1.8-0.3-2.5-1l-12.6-12.4c-1.4-1.4-1.4-3.6,0-5s3.6-1.4,5,0l12.6,12.4 C338.1,462.4,338.1,464.7,336.7,466.1z M370.4,421.7c-0.7,0.6-1.5,0.9-2.3,0.9c-1,0-2-0.4-2.7-1.2L353.8,408 c-1.3-1.5-1.1-3.7,0.4-5s3.7-1.1,5,0.4l11.6,13.4C372.1,418.1,371.9,420.4,370.4,421.7z M329,388.7c-34.2,0-61.8-27.7-61.8-61.8 c0-34.2,27.7-61.8,61.8-61.8c34.2,0,61.8,27.7,61.8,61.8S363.1,388.7,329,388.7z M413.2,441l-8.2,15.7c-0.6,1.2-1.9,1.9-3.1,1.9 c-0.6,0-1.1-0.1-1.6-0.4c-1.7-0.9-2.4-3-1.5-4.8l8.2-15.7c0.9-1.7,3-2.4,4.8-1.5C413.4,437.1,414.1,439.3,413.2,441z M427.7,392.6 c-1.3,5.9-5.7,9.6-11.3,9.6l0,0c-4.5,0-9.2-2.5-12-7c-2.5,1.6-5.3,2.5-8.3,2.5c-3.9,0-7.5-1.6-9.7-4.4s-3-6.4-2.1-10.3 c2.8-12.9,22.5-20,24.7-20.8l2.9-1l2.2,2.1C415.7,365,430.5,379.7,427.7,392.6z M426.3,275.9c-1-3.2-0.8-7.1,0.9-10.8 c-4.7-2.2-7.6-6.5-8.3-10.5c-1-5.8,2.2-10.9,8-13c1.8-0.6,3.7-0.9,5.7-0.9c11.3,0,23.6,9.7,25,10.8l2.4,1.9l-0.6,3 c-0.5,2.3-5,22.7-17.5,27.1c-1.6,0.6-3.1,0.8-4.6,0.8l0,0C432.2,284.4,427.9,281,426.3,275.9z M437.7,324.8c-0.5,0-0.9-0.1-1.4-0.3 c-1.8-0.8-2.6-2.8-1.9-4.6l6.9-16.3c0.8-1.8,2.8-2.6,4.6-1.9c1.8,0.8,2.6,2.8,1.9,4.6l-6.9,16.3C440.4,324,439.1,324.8,437.7,324.8 z M459,413.6c-0.7,0.6-1.6,1-2.4,1c-0.9,0-1.9-0.4-2.6-1.1l-12.1-12.9c-1.3-1.4-1.3-3.7,0.1-5s3.7-1.3,5,0.1l12.1,12.9 C460.5,410,460.4,412.3,459,413.6z M472.1,371.3L472.1,371.3c-2,0-3.6-1.5-3.6-3.5l-0.3-17.7c0-2,1.5-3.6,3.5-3.6c0,0,0,0,0.1,0 c1.9,0,3.5,1.5,3.5,3.5l0.3,17.7C475.6,369.6,474.1,371.2,472.1,371.3z" style="fill: rgb(253, 123, 197);"/>
    <path class="st0" d="M207.1,349.8c-7.5,7.8-27.2,3.2-27.2,3.2s-5-19.5,2.5-27.3c7.1-7.3,16.7,3.3,10.9,13.1 c-0.2,0.3,0.2,0.7,0.5,0.5C203.4,333.2,214.3,342.4,207.1,349.8z M278.4,225.6c-0.1-0.4,0.4-0.6,0.6-0.3c7.2,8.8,20.5,3.4,16-5.8 c-4.7-9.7-24.8-11.6-24.8-11.6s-10.9,17-6.2,26.7C268.5,243.8,280.8,236.7,278.4,225.6z M295.2,415.4c-0.1,0.4-0.6,0.3-0.7-0.1 c-1.5-11.3-15.5-13.8-16.6-3.6c-1.2,10.8,14.9,23,14.9,23s18.3-8.6,19.4-19.3C313.3,405.2,299,404.7,295.2,415.4z M410.5,367 c0,0-19.1,6.5-21.4,17.1c-2.2,10,11.9,12.1,16.9,1.9c0.2-0.3,0.6-0.2,0.7,0.1c0.2,11.4,13.9,15.4,16.1,5.4 C425.1,381,410.5,367,410.5,367z M428.6,246.3c-9.6,3.5-3.9,16.5,7.4,15.3c0.4,0,0.5,0.4,0.2,0.6c-9.5,6.2-5.6,20,4,16.5 c10.2-3.6,14.2-23.4,14.2-23.4S438.8,242.7,428.6,246.3z" style="fill: rgb(255, 216, 36);"/>
  </g>
</svg>