<?xml version="1.0" encoding="utf-8"?>
<svg xmlns="http://www.w3.org/2000/svg" viewBox="0 0 500 500">
  <g transform="matrix(1, 0, 0, 1, -118.964, -613.166)">
    <path class="st2" d="M184.2,702.3c23.7,7.8,25.2,35.1,36.4,40.7c11.2,5.6,26.2,2.2,49.2-16.8c33.3-27.5,71.8-22.5,87.9-16.1 c18.5,7.3,41.3,30.8,46.7,58.2c5.5,27.5,23.6,53.1,52.8,53.7c29.2,0.5,46.9,10,45.2,38.7c-1.1,17.8,11.4,32.6,21,41.3 c0.5-1.2,1-2.3,1.4-3.5c41.6-108.2-12.4-229.7-120.6-271.3c-93.9-36.1-197.8-0.2-250.8,80.7C164.1,702.3,175.2,699.3,184.2,702.3z M434.7,682.9c2.7-3.2,7-4.2,10.7-2.8c1,0.4,1.9,0.9,2.7,1.6c29.5,24.9,51,59.3,60.3,97c1.3,5.1-1.8,10.3-7,11.6 c-5.1,1.3-10.3-1.8-11.6-7c-8.4-33.8-27.6-64.7-54.1-87C431.8,692.9,431.3,686.9,434.7,682.9z M361.3,641.1c11.5,2.1,23,5.3,34,9.5 c4.9,1.9,7.4,7.4,5.5,12.3s-7.4,7.4-12.3,5.5c-9.9-3.8-20.1-6.7-30.5-8.5c-5.1-0.9-8.6-5.9-7.7-11.1 C351.2,643.6,356.1,640.2,361.3,641.1z" style="fill: rgb(145, 21, 11);"/>
    <path class="st1" d="M253.6,1019.1c104.6,40.2,221.5-8.8,266.8-109.8c-10.9-9.3-26.5-21.6-25.4-49c1.1-27.9-28.7-29.2-38.3-29.4 c-6.4-0.1-17.1-1.5-22.9-3.7c-20.6-7.9-33.5-20.5-40.7-47.3c-5.3-20-19.7-39.8-28.6-45.4c-16.7-10.6-54.7-25.8-94.2,4.8 c-23.1,17.9-37.4,21.9-51.3,14.5c-8.9-4.7-11.8-14.2-15.6-21.4c-4.7-9-9.4-16.7-20-20.7c-0.4-0.2-0.9-0.3-1.3-0.5 c-10.2-3.3-25.1,2.3-37.2,11.2c-4.4,8.1-8.5,16.6-11.9,25.5C91.4,856,145.4,977.5,253.6,1019.1z M476,891.9 c4.9,1.9,7.4,7.4,5.5,12.4s-7.4,7.4-12.4,5.5c-4.9-1.9-7.4-7.4-5.5-12.4S471.1,890,476,891.9z M431.4,934.5 c4.9,1.9,7.4,7.4,5.5,12.4c-1.9,4.9-7.4,7.4-12.4,5.5c-4.9-1.9-7.4-7.4-5.5-12.4C421,935,426.5,932.6,431.4,934.5z M225.3,958 c-4.9-1.9-7.4-7.4-5.5-12.4c1.9-4.9,7.4-7.4,12.4-5.5c4.9,1.9,7.4,7.4,5.5,12.4C235.7,957.4,230.2,959.9,225.3,958z M291,948.4 c-4.9-1.9-7.4-7.4-5.5-12.4s7.4-7.4,12.4-5.5s7.4,7.4,5.5,12.4S295.9,950.3,291,948.4z M424.9,853.8c4.9,1.9,7.4,7.4,5.5,12.4 c-1.9,4.9-7.4,7.4-12.4,5.5c-4.9-1.9-7.4-7.4-5.5-12.4C414.4,854.4,419.9,851.9,424.9,853.8z M375.1,913.7 c4.9,1.9,7.4,7.4,5.5,12.4c-1.9,4.9-7.4,7.4-12.4,5.5c-4.9-1.9-7.4-7.4-5.5-12.4C364.6,914.3,370.1,911.8,375.1,913.7z M346.9,977.6c4.9,1.9,7.4,7.4,5.5,12.4c-1.9,4.9-7.4,7.4-12.4,5.5c-4.9-1.9-7.4-7.4-5.5-12.4C336.5,978.1,342,975.7,346.9,977.6z M351.2,765.4c31.9,12.3,47.8,48,35.5,79.9s-48,47.8-79.9,35.5s-47.8-48-35.5-79.9C283.5,769.1,319.3,753.2,351.2,765.4z M237.3,868c4.9,1.9,7.4,7.4,5.5,12.4c-1.9,4.9-7.4,7.4-12.4,5.5c-4.9-1.9-7.4-7.4-5.5-12.4C226.8,868.6,232.3,866.1,237.3,868z M241.7,789.6c4.9,1.9,7.4,7.4,5.5,12.4c-1.9,4.9-7.4,7.4-12.4,5.5s-7.4-7.4-5.5-12.4S236.8,787.7,241.7,789.6z M181.8,879.2 c4.9,1.9,7.4,7.4,5.5,12.4s-7.4,7.4-12.4,5.5c-4.9-1.9-7.4-7.4-5.5-12.4S176.8,877.3,181.8,879.2z M182.1,833.9 c-1.9,4.9-7.4,7.4-12.4,5.5c-4.9-1.9-7.4-7.4-5.5-12.4s7.4-7.4,12.4-5.5C181.5,823.4,184,829,182.1,833.9z M181.8,763.8 c4.9,1.9,7.4,7.4,5.5,12.4c-1.9,4.9-7.4,7.4-12.4,5.5s-7.4-7.4-5.5-12.4S176.8,761.9,181.8,763.8z" style="fill: rgb(253, 123, 197);"/>
  </g>
</svg>